<?xml version="1.0" encoding="UTF-8" standalone="no"?>
<svg
   xmlns:dc="http://purl.org/dc/elements/1.1/"
   xmlns:cc="http://creativecommons.org/ns#"
   xmlns:rdf="http://www.w3.org/1999/02/22-rdf-syntax-ns#"
   xmlns:svg="http://www.w3.org/2000/svg"
   xmlns="http://www.w3.org/2000/svg"
   xmlns:sodipodi="http://sodipodi.sourceforge.net/DTD/sodipodi-0.dtd"
   xmlns:inkscape="http://www.inkscape.org/namespaces/inkscape"
   viewBox="0 0 739.43854 363.35065"
   id="svg3081"
   version="1.1"
   inkscape:version="0.48.3.1 r9886"
   width="100%"
   height="100%"
   sodipodi:docname="arke-theme-screenshot.svg"
   inkscape:export-filename="/home/cowbellemoo/Desktop/arke-theme-screenshot.png"
   inkscape:export-xdpi="365.10187"
   inkscape:export-ydpi="365.10187">
  <metadata
     id="metadata3105">
    <rdf:RDF>
      <cc:Work
         rdf:about="">
        <dc:format>image/svg+xml</dc:format>
        <dc:type
           rdf:resource="http://purl.org/dc/dcmitype/StillImage" />
        <dc:title></dc:title>
      </cc:Work>
    </rdf:RDF>
  </metadata>
  <defs
     id="defs3103" />
  <sodipodi:namedview
     pagecolor="#ffffff"
     bordercolor="#666666"
     borderopacity="1"
     objecttolerance="10"
     gridtolerance="10"
     guidetolerance="10"
     inkscape:pageopacity="0"
     inkscape:pageshadow="2"
     inkscape:window-width="1623"
     inkscape:window-height="1026"
     id="namedview3101"
     showgrid="false"
     inkscape:zoom="1"
     inkscape:cx="420.16116"
     inkscape:cy="191.10228"
     inkscape:window-x="57"
     inkscape:window-y="24"
     inkscape:window-maximized="1"
     inkscape:current-layer="svg3081"
     showguides="false"
     inkscape:guide-bbox="true"
     fit-margin-top="0"
     fit-margin-left="0"
     fit-margin-right="0"
     fit-margin-bottom="0">
    <sodipodi:guide
       orientation="0,1"
       position="213.32204,256.32098"
       id="guide3958" />
    <sodipodi:guide
       orientation="0,1"
       position="287.82204,140.32098"
       id="guide3960" />
    <sodipodi:guide
       orientation="0,1"
       position="297.82204,208.82098"
       id="guide3962" />
  </sodipodi:namedview>
  <rect
     style="fill:#116191;fill-opacity:1;stroke:none"
     id="rect3118"
     width="739.43854"
     height="363.35065"
     x="0"
     y="0" />
  <g
     id="g3930"
     transform="translate(90.322037,-168.97034)">
    <path
       sodipodi:nodetypes="cccccccccssscssccc"
       inkscape:connector-curvature="0"
       id="path3089"
       d="m 74.46875,277.15625 c 1.579385,45.67064 51.72079,45.45316 81.25,68.34375 -19.10929,-8.27511 -50.42102,-6.45033 -73.09375,-21.15625 10.576587,34.37059 48.2959,23.03251 76,32.375 -16.49859,-1.6109 -38.27337,7.71269 -58.84375,0.34375 18.16522,28.63219 41.73357,9.51851 64.5625,9.6875 -11.51426,2.9336 -23.3828,15.76645 -39.28125,14.5625 19.37516,18.64827 29.52465,0.53048 43.40625,-6.40625 -0.0186,0.0221 -0.0441,0.0403 -0.0625,0.0625 0.53798,-0.28114 1.12887,-0.51912 1.75,-0.65625 3.7863,-0.83593 7.53907,1.55744 8.375,5.34375 0.83592,3.7863 -1.55744,7.53907 -5.34375,8.375 -2.01612,0.44511 -4.03345,-0.0166 -5.59375,-1.125 1.7245,2.7721 4.74216,4.65624 8.25,4.8125 5.65295,0.25183 10.43568,-4.12829 10.6875,-9.78125 0.20508,-4.60353 -2.65723,-8.62046 -6.78125,-10.09375 -7.67084,-4.28933 -12.14195,-11.59322 -12.59375,-18.28125 -2.42525,-35.89106 -62.24573,-40.56406 -92.6875,-76.40625 z"
       style="fill:#ffffff" />
    <path
       style="fill:#ffffff"
       inkscape:connector-curvature="0"
       d="m 178.06717,383.43478 c 0.65588,2.9708 -1.22075,5.91083 -4.19155,6.56671 -2.9708,0.65587 -5.91083,-1.22076 -6.56671,-4.19156 -0.65588,-2.9708 1.22076,-5.91083 4.19156,-6.56671 2.97079,-0.65588 5.91083,1.22076 6.5667,4.19156 z"
       id="path3093" />
    <path
       id="path3095"
       d="m 177.375,347.59375 c -0.88616,0.0395 -1.77306,0.20162 -2.625,0.46875 -0.0216,0.009 -0.041,0.022 -0.0625,0.0312 -0.22844,0.0985 -0.43976,0.20556 -0.65625,0.34375 -2.19619,1.40186 -2.83936,4.30381 -1.4375,6.5 1.40186,2.1962 4.3038,2.83937 6.5,1.4375 1.17369,-0.74919 1.88206,-1.91417 2.09375,-3.1875 0.63271,2.80473 -0.49923,5.83258 -3.0625,7.46875 -3.2684,2.08625 -7.60125,1.11214 -9.6875,-2.15625 -0.35345,-0.55373 -0.59827,-1.15127 -0.78125,-1.75 -0.33472,3.12937 0.74966,6.36918 3.25,8.65625 4.1753,3.81916 10.68084,3.51905 14.5,-0.65625 3.81917,-4.1753 3.51905,-10.64959 -0.65625,-14.46875 -2.08765,-1.90958 -4.75548,-2.80419 -7.375,-2.6875 z"
       style="fill:#ffffff"
       inkscape:connector-curvature="0" />
  </g>
  <text
     xml:space="preserve"
     style="font-size:116.71482849px;font-style:normal;font-weight:normal;line-height:125%;letter-spacing:0px;word-spacing:0px;fill:#000000;fill-opacity:1;stroke:none;font-family:Sans"
     x="290.20831"
     y="221.6171"
     id="text3954"
     sodipodi:linespacing="125%"><tspan
       sodipodi:role="line"
       id="tspan3956"
       x="290.20831"
       y="221.6171"
       style="font-style:normal;font-variant:normal;font-weight:normal;font-stretch:normal;fill:#ffffff;fill-opacity:1;font-family:Ubuntu;-inkscape-font-specification:Ubuntu"
       dx="0 -2.635869 -1.5815212 -8.4347801">Arke</tspan></text>
</svg>
